<svg xmlns="http://www.w3.org/2000/svg" xmlns:xlink="http://www.w3.org/1999/xlink" data-name="Layer 1" viewBox="0 0 823.83 516.18" id="deal"><defs><linearGradient id="a" x1="327.57" x2="207.23" y1="312.69" y2="249.79" gradientUnits="userSpaceOnUse"><stop offset=".17" stop-color="#00272e"></stop><stop offset="1" stop-color="#69b9eb" stop-opacity="0"></stop></linearGradient><linearGradient id="d" x1="490.87" x2="538.92" y1="413.61" y2="245.1" gradientTransform="rotate(-.14 710.904 983.083)" xlink:href="#a"></linearGradient><linearGradient id="b" x1="486.55" x2="507.93" y1="219.9" y2="219.9" gradientTransform="rotate(-.14 710.904 983.083)" gradientUnits="userSpaceOnUse"><stop offset="0" stop-color="#ecc4d7"></stop><stop offset=".42" stop-color="#efd4d1"></stop><stop offset="1" stop-color="#f2eac9"></stop></linearGradient><linearGradient id="e" x1="500.59" x2="462.88" y1="204.4" y2="267.14" xlink:href="#b"></linearGradient><linearGradient id="f" x1="467.3" x2="512.6" y1="190.22" y2="190.22" xlink:href="#b"></linearGradient><linearGradient id="g" x1="386.53" x2="410.06" y1="334.98" y2="325.81" xlink:href="#b"></linearGradient><linearGradient id="h" x1="394.37" x2="242.39" y1="304.73" y2="331.16" xlink:href="#a"></linearGradient><linearGradient id="i" x1="315.38" x2="327.77" y1="187.26" y2="191.11" xlink:href="#b"></linearGradient><linearGradient id="j" x1="415.04" x2="391.52" y1="317.65" y2="373.12" xlink:href="#b"></linearGradient><linearGradient id="k" x1="404.23" x2="398.81" y1="332.76" y2="352.45" xlink:href="#b"></linearGradient><linearGradient id="l" x1="513.37" x2="541.65" y1="365.96" y2="365.96" xlink:href="#b"></linearGradient><linearGradient id="c" x1="288.45" x2="247.7" y1="536" y2="553.99" gradientUnits="userSpaceOnUse"><stop offset="0" stop-color="#68e1fd"></stop><stop offset=".01" stop-color="#67ddf9"></stop><stop offset=".12" stop-color="#5cb3ce"></stop><stop offset=".24" stop-color="#538ea9"></stop><stop offset=".37" stop-color="#4c718b"></stop><stop offset=".5" stop-color="#465a73"></stop><stop offset=".63" stop-color="#424a63"></stop><stop offset=".79" stop-color="#404059"></stop><stop offset=".99" stop-color="#3f3d56"></stop></linearGradient><linearGradient id="m" x1="353.09" x2="317.48" y1="535.2" y2="559.06" xlink:href="#c"></linearGradient><linearGradient id="n" x1="518.25" x2="546.88" y1="530.05" y2="551.71" xlink:href="#c"></linearGradient><linearGradient id="o" x1="430.53" x2="486.33" y1="528.66" y2="556.93" xlink:href="#c"></linearGradient><linearGradient id="p" x1="460.99" x2="536.66" y1="216.75" y2="170" xlink:href="#a"></linearGradient><linearGradient id="q" x1="511.24" x2="454.75" y1="252.26" y2="256.58" xlink:href="#a"></linearGradient><linearGradient id="r" x1="325.22" x2="279.41" y1="118.17" y2="203.65" xlink:href="#a"></linearGradient><linearGradient id="s" x1="107.27" x2="132.64" y1="286.56" y2="286.56" xlink:href="#a"></linearGradient><linearGradient id="t" x1="130.49" x2="160.15" y1="289.76" y2="289.76" xlink:href="#a"></linearGradient><linearGradient id="u" x1="146.91" x2="110.06" y1="291.47" y2="385.57" gradientUnits="userSpaceOnUse"><stop offset="0" stop-color="#fff" stop-opacity="0"></stop><stop offset="1" stop-color="#1a7fc1"></stop></linearGradient><linearGradient id="v" x1="-100.9" x2="402.93" y1="344.61" y2="546.14" xlink:href="#a"></linearGradient><linearGradient id="w" x1="-121.91" x2="381.92" y1="341.8" y2="543.33" xlink:href="#a"></linearGradient><linearGradient id="x" x1="266.13" x2="266.53" y1="351.46" y2="351.46" gradientUnits="userSpaceOnUse"><stop offset="0" stop-color="#68e1fd"></stop><stop offset="1" stop-color="#69b9eb"></stop></linearGradient></defs><path fill="#68e1fd" d="M823.65 366.08a116.89 116.89 0 0 1-12 45.94c-11.58 23-29.6 41.79-50.93 56.32a205.8 205.8 0 0 1-37.92 20.23 229.57 229.57 0 0 1-22.4 7.84c-46 13.46-94.54 14.12-142.42 14.68l-337 3.94-44.32.51c-14.1.17-28.47.27-42.69-.51-27.13-1.46-53.76-6.09-77.11-19.42A102.6 102.6 0 0 1 26 468.34c-15.83-20.89-24.39-47.53-24.8-74.08v-2.79c.17-25.91 8.17-51.52 24.81-71.41 1.06-1.26 2.14-2.51 3.27-3.72 2.35-2.54 4.92-5 7.62-7.46 17.19-15.51 39.89-29.41 50.18-49.39 18.1-35.16-4.47-49.51-7.44-84-5-58 53.72-124.65 101.42-151.26C232.34-4.45 296.94-7.89 351 15.12c57.2 24.36 110.58 77.41 170.92 62.45 19.4-4.81 37.22-16.65 57.21-17 36.94-.71 62.58 36.86 74.08 72s17.74 74.8 45.08 99.67c19.62 17.84 46.67 24.55 70.43 36.4a116.23 116.23 0 0 1 20.39 12.65c14 11.06 23.62 26.07 29.16 42.75a114.36 114.36 0 0 1 5.38 42.04Z" opacity=".18"></path><path fill="#68e1fd" d="M760.93 468.67a215 215 0 0 1-60.32 28.06c-43 12.59-88.21 14-133 14.56l-9.39.12-123.72 1.45-62.84.74-139.87 1.63-10.61.12-44.33.52c-14.1.17-28.46.26-42.69-.52C107 513.93 80.37 509.3 57 495.96a102.44 102.44 0 0 1-30.74-27.29Z" opacity=".18"></path><path fill="#000405" d="M624.57 491.13c.29 4.17-2.67 8.2-1.83 12.29 1.24 6 8.09 5 14.23 4.55 14.92-1.22 34-3.5 48.53-7.25 13.45-3.48 23.24-6.84 36.06-11 1-.33.69-3.17.74-4.22.08-1.39-1.76-1.91-3.15-2-12.68-.41-25.5 0-37.94-2.5-5.59-1.14-11.07-2.88-16.74-3.53-7-.79-14 .07-21-.46-5.07-.39-17.42-5.94-22.13-3.66-7.06 3.49 2.88 12.74 3.23 17.78ZM330.78 494.89c14.65 4.11 26.5 12.81 39.4 19.55q-69.94.79-139.87 1.62a63.91 63.91 0 0 1 13-9.58c15.33-8.58 33.34-10.56 50.8-12.38 12.2-1.28 24.81-2.53 36.67.79ZM568.57 507.21a7.41 7.41 0 0 1-1.66 3.62 6.48 6.48 0 0 0-.78 1.3l-9.39.12L433 513.67a36.67 36.67 0 0 0 6.06-5.95c2.58-3.2 4.64-6.83 7.64-9.61 8.86-8.22 22.89-6.69 34.37-3 3.49 1.14 7 2.44 10.68 2.39 6.52-.08 12.12-4.32 18-7.24 18.47-9.22 42.92-4.28 56.36 11.39 1.32 1.62 2.63 3.5 2.46 5.56Z" opacity=".05"></path><path fill="#25233a" d="M502.57 367.05 479.7 479.52l-15.37-1.76-1.77-.21s4.4-33.34 6.3-80.89c1.25-31.5 6.64-57.22 9.22-78.6a96.9 96.9 0 0 1 4-17.34c3.12-9.46 7.87-18.31 13.91-17.4 13.34 2 30.91 13.53 33.23 20.75 4.04 12.6-26.65 62.98-26.65 62.98Z"></path><path fill="#fff" d="M486.58 301.04S476.33 380.42 476 405.19s-10.52 72.36-10.52 72.36l-1.18.21-1.77-.21s4.4-33.34 6.3-80.89c1.25-31.5 6.64-57.22 9.22-78.6a96.9 96.9 0 0 1 4-17.34 19.72 19.72 0 0 1 4.53.32Z" opacity=".24"></path><path fill="#3f3d56" d="M555 479.34h-16.95a.65.65 0 0 1 0-.1c-.46-2.29-9-44.59-21.07-75.23-9-22.85-13.35-69.39-15-93.21-.66-9-.92-14.76-.92-14.76s34.52-10.19 39-5.67 9.57 25 9.57 25-11.82 81.1-4.3 86.6 9.67 77.37 9.67 77.37Z"></path><path fill="#68e1fd" d="M286 155.2s-25.14 7.75-35.32 80.31c-3.68 26.16 19.72 72.37 19.72 72.37Z"></path><path fill="url(#a)" d="M286 210.53s-25.14 7.75-35.32 80.31C247 317 270.4 363.21 270.4 363.21Z" opacity=".61" transform="translate(0 -55.33)"></path><path fill="#25233a" d="M267.64 298.82a9.81 9.81 0 0 0-11.27 11.32c1.92 11.34 5.58 27.08 12 36C279.2 361.07 294 381.67 294 381.67l15.3 105 18.87-2.55L328 383.5l-21.3-78.23Z"></path><path fill="#3f3d56" d="m306.65 305.27-2.45 87.4-40.45 94.07-13.55-5.77-3.94-1.69 22.4-88.2s-8.72-24-15.14-41.5c-6.16-16.79 2.22-50.06 2.92-52.74v-.18Z"></path><path fill="#68e1fd" d="m474.15 249.37-49.91 24.74-9.32-11.87-2.39-3.06 42.64-23.15s14.65-32.57 17.83-47.54c.61-2.78 1.22-5 1.79-6.91 1.11-3.47 11.7-15.73 15.26-16.46s-.45 10.21 1.92 13a22 22 0 0 1 3.8 13c.41 9.28-21.62 58.25-21.62 58.25Z"></path><path fill="#68e1fd" d="M540 278.34s-24.79 29.79-53.37 22.7a39 39 0 0 1-5.76-1.94 10 10 0 0 1-5.21-13.2c2.76-6.26 2.84-15.31 2.59-23.66-.58-19.21-5.44-40-5.8-48.65-.24-5.53.65-13.36 2.28-21.18 2.87-13.9 8.05-27.75 13.31-28.55 15.64-2.41 21 1.85 21 1.85l26.7 15.51c13.26 13.9 6.8 35.66 4.26 97.12Z"></path><path fill="#68e1fd" d="m500.81 199.88 6.83 11-18.91 19.13-3.89 3.94 20.55-69.65.08-6.97 2.61 2.67v.01l3.42 3.5 1.31 28.84-12 7.53z"></path><path fill="url(#d)" d="m537.46 271.64-2.9 75.09s-40.8 19.39-46.19-2.4c-4.17-16.84 6.5-36.05 6.5-36.05Z" opacity=".61" transform="translate(0 -55.33)"></path><path fill="#fff" d="m497.28 257.95-12.27 49.41 75.82 15.56 10.9-48.34-74.45-16.63z"></path><path fill="url(#b)" d="M506 201.64c0 .22-.27 11.41-.66 18.53-.28 5.51-2.86 9.39-6.8 13.23a24.33 24.33 0 0 1-8.09 5.58 4.28 4.28 0 0 1-5.61-5.14c.39-1.48.78-3.2 1.08-5 .64-3.71.92-7.73-.09-10.57a2.26 2.26 0 0 0-.1-.31c-.6-1.47 0-3.07 1.36-4.68 1.91-2.27 5.25-4.57 8.58-6.51a102.3 102.3 0 0 1 10.33-5.13Z" transform="translate(0 -55.33)"></path><path fill="url(#e)" d="M488.1 228.09a9.1 9.1 0 0 1-2.16.76c.64-3.71.92-7.73-.09-10.57l1.26-5 .95-3.72 7.63-2.79 7.73-2.82c-1.86 13.76-9.22 21.25-15.32 24.14Z" transform="translate(0 -55.33)"></path><path fill="url(#f)" d="M486 162.54a22 22 0 0 0-20.44 25 74.24 74.24 0 0 0 6.82 25.78c7.19 12.2 25.25 2.1 28.1-2.94s13.6-27.84 9.06-34.31c-3-4.48-11.82-14.07-23.54-13.53Z" transform="translate(0 -55.33)"></path><path fill="#3f3d56" d="m466.88 98.61 3.72 1.9a14 14 0 0 0-11.47 5.58 18.34 18.34 0 0 0-5.35 12.83l6.31-3s-.47 7.79 11.49 8.36 24.62 1 24.62 1l-4.06-5.61s7.44 3 8.74 5.71a90 90 0 0 1 2.56 13.42s2.95-7.69 4.18-6-1.28 8.65-2.83 10.18-1.29 6.11-1.43 6.49 7.41-5.91 7.74-8.07 7.81-24 2.9-28.56l3-.23a14 14 0 0 0-5.87-2.26s-19.7-25.68-44.25-11.74Z"></path><path fill="url(#g)" d="M389.14 324.75a58 58 0 0 1 10.67-7.39 35.16 35.16 0 0 1 9.29-1.92s.52 4.37-2 4.66-4.62 4.12-4.62 4.12 16.17 6.62 18.4 6 1.79 2.6-2.3 2.39-5.09 5.51-7.92 5.43-7.31 1.67-11.47 1.82a43.25 43.25 0 0 1-12.26-2.86Z" transform="translate(0 -55.33)"></path><path fill="#68e1fd" d="M326.56 222.98 313 299.23s-4.68 14.59-28.9 12.41a38.8 38.8 0 0 1-23.61-10.68l-.39-.37-.27-.28a47.05 47.05 0 0 1-10.67-16.16s15.56-107.48 31.9-126.19c1.63-1.86 3.26-2.85 4.9-2.76a28.93 28.93 0 0 1 12.48 4.78 61.16 61.16 0 0 1 28.12 63Z"></path><path fill="url(#h)" d="m301.07 275.79-17 91.17s26.05 3.58 28.9-12.4l8.03-46.37Z" opacity=".61" transform="translate(0 -55.33)"></path><path fill="url(#i)" d="M286 210.53s2.59-19.61 3.63-32.36 5.2-29.83 26.6-27.64 21.47 34.54 15.56 48.08-13.82 13.15-13.82 13.15-10.66-2.32-10.26 10.5Z" transform="translate(0 -55.33)"></path><path fill="#3f3d56" d="M293.9 92.49a24 24 0 0 0-6.51 10.94 57.54 57.54 0 0 0-1.94 10.33l2.18-2.39a159.79 159.79 0 0 1-1.33 17.89 97.21 97.21 0 0 0-1 16.7l4-.2 5 6.14 5.52-3.74 4.15-2.21 3.7-9.14a5.15 5.15 0 0 1-1.8-6c1.36-3.73 4.74-4.59 5.53-2.39a43.32 43.32 0 0 1 1 8.34l5.9-16.71s3.7-5.19 6.94-1.62a17.35 17.35 0 0 0 7.14 4.76l-1.95-5.52 5.35 1.37-.42-6.38 4 2.79s1.75-10.33-1.64-14.91-16.89-22.87-43.82-8.05Z"></path><path fill="#68e1fd" d="m389.59 267.35-2.71 14.32-.73 3.85-48.81-3.64c-13.51-1.16-26.77-10.4-28.45-23.91L292 198.34a15.14 15.14 0 0 1 16.66-19.48 17.37 17.37 0 0 1 14 11.93l10.63 53.37a16.64 16.64 0 0 0 12.53 12.95Z"></path><path fill="url(#j)" d="m414.92 317.56-6.8 2.12s-8.5.76-11.33 3.18-1.25 3.51-1.25 3.51 9-1.32 10.94-.57 11.43 4.52 14.43 4.47 3.33-.83 3.33-.83Z" transform="translate(0 -55.33)"></path><path fill="url(#k)" d="M394.41 335.37a4.3 4.3 0 0 1 3.73-1 .73.73 0 0 1 .39.2.84.84 0 0 1 0 .79 13.45 13.45 0 0 1-2.12 4.23c1.06-.36 1.55-1.54 2.22-2.43a5.61 5.61 0 0 1 4.3-2.22 1 1 0 0 1 .58.12c.41.28.23.92 0 1.37-.42.84-.83 1.69-1.25 2.54a24.46 24.46 0 0 1 3.66-4.2 2.68 2.68 0 0 1 1.2-.75 1 1 0 0 1 1.2.53 1.35 1.35 0 0 1 0 .82 9.35 9.35 0 0 1-1.5 3.21 15.51 15.51 0 0 1 3.14-3.71.84.84 0 0 1 .72-.29.61.61 0 0 1 .35.3c.42.7 0 1.59-.44 2.29-.81 1.29-1.84 2.67-3.35 2.9a3.9 3.9 0 0 0-1 .18 3.49 3.49 0 0 0-.65.43 3.24 3.24 0 0 1-3.55.08 4.42 4.42 0 0 1-4.86-.08.95.95 0 0 0-1.2-.09 3.32 3.32 0 0 1-3.68-1.09c-.9-1.31 1.12-3.3 2.11-4.13Z" transform="translate(0 -55.33)"></path><path fill="#68e1fd" d="m540.94 304.9-16.7-5.77-.57-.2 12.17-39.12s-16-43.95-18.66-57.47a37.82 37.82 0 0 1-.12-13.57 11.74 11.74 0 0 1 9.2-9.55 11.38 11.38 0 0 1 7.66 1 51.07 51.07 0 0 1 6 3.66 8 8 0 0 1 3.07 4.58c3 12.32 15.07 62.58 15.52 67.35.49 5.47-17.57 49.09-17.57 49.09Z"></path><path fill="url(#l)" d="M519.31 357.78c-.82.78-1.6 2.18-.73 2.92.21.18.5.28.67.5.42.53-.1 1.27-.58 1.74l-4 3.89c-1.48 1.43-3.09 3.22-2.75 5.25a4.11 4.11 0 0 0 2.9 3.05 8.31 8.31 0 0 0 4.37-.05 2.15 2.15 0 0 0 1.19 2.05 6.35 6.35 0 0 0 2.44.6 18.17 18.17 0 0 0 7.35-.2c.18.27.36.53.55.79 3.16-.56 4.88-3.94 6-6.94s2.26-6.34 3.22-9.57a2.16 2.16 0 0 0 .09-1.37 2.21 2.21 0 0 0-1.42-1.07c-3.82-1.45-7.63-2.93-11.46-4.36-3.54-1.32-5.15.26-7.84 2.77Z" transform="translate(0 -55.33)"></path><path fill="url(#c)" d="m248.82 535.4-5.75 10.46 5.78 3.31 2.15-1.72 9.32 8.58s3.33 2.29 11.48 2.27 9.76-1.17 9.76-1.17 0-12-10-11.45-10.69-5.14-10.69-5.14Z" transform="translate(0 -55.33)" style="isolation:isolate"></path><path fill="url(#m)" d="m312.44 541.68-.94 15.46h7v-5.84l9.5 5.8 23.49-.06s0-16-10.56-15.16-14.82 0-14.82 0l-1.67-2.23Z" transform="translate(0 -55.33)" style="isolation:isolate"></path><path fill="url(#n)" d="m554.06 534.63 1 15.45h-7v-5.84l-9.43 5.86-23.49.06s0-16 10.49-15.21 14.82 0 14.82 0l1.65-2.24Z" transform="translate(0 -55.33)" style="isolation:isolate"></path><path fill="url(#o)" d="m477.49 534.82 1 15.44h-7v-5.84L462 550.3l-23.49.06s0-16 10.49-15.21 14.82 0 14.82 0l1.65-2.24Z" transform="translate(0 -55.33)" style="isolation:isolate"></path><path fill="#68e1fd" d="m500.81 199.88 6.83 11-18.91 19.13-3.89 3.94 20.55-69.65.08-6.97 2.61 2.67v.01l3.42 3.5 1.31 28.84-12 7.53z"></path><path fill="#fff" d="m485.94 173.52-2.55 12 1.45 48.42 18.63-63.13-8 5.06c-.43.27-.87.52-1.33.75a5.92 5.92 0 0 1-8.17-3.12Z"></path><path fill="#68e1fd" d="m486.06 163.85-8.31 15.57 2.76 6.5-4.51 9.75 8.81 38.27s-2.41-46.78 1.1-60.44c.03.02 1.19-6.52.15-9.65Z"></path><path fill="url(#p)" d="m500.81 199.88 6.83 11-18.91 19.13-3.89 3.94 20.55-69.65.08-6.97 2.61 2.67v.01l3.42 3.5 1.31 28.84-12 7.53z" opacity=".61"></path><path fill="url(#q)" d="m486.06 219.18-8.31 15.57 2.76 6.5L476 251l8.81 38.27s-2.41-46.78 1.1-60.44c.03.02 1.19-6.52.15-9.65Z" opacity=".61" transform="translate(0 -55.33)"></path><path fill="#68e1fd" d="m285.32 151.92 24.55 12.21 6.64 12.87-35.43-19.06 4.24-6.02z"></path><path fill="url(#r)" d="m285.32 151.92 24.55 12.21 6.64 12.87-35.43-19.06 4.24-6.02z" opacity=".61"></path><path fill="#68e1fd" d="M219.7 321.22v195h-21.47v-88.46H4.57A130.85 130.85 0 0 1 0 395.43v-2.76c.17-25.9 8.16-51.52 24.81-71.41ZM242.61 310.04v11.18H24.81a95.29 95.29 0 0 1 3.26-3.72c2.36-2.54 4.92-5 7.63-7.46ZM124.15 245.67c-2.46-2.36-5.4-4.16-8-6.32-.92-.76-1.89-1.78-1.71-3a2.5 2.5 0 0 1 2-1.87 7.35 7.35 0 0 1 2.91.18l-5.6-6.3c-.52-.59-1.08-1.4-.7-2.09s1.45-.65 2.19-.3a4.63 4.63 0 0 0 2.26.81c-2-2.81-4.54-5.1-6.67-7.77s-3.84-6-3.52-9.36a2.14 2.14 0 0 1 .49-1.34c.64-.64 1.72-.37 2.55 0a26 26 0 0 1 13.33 13.16 23.91 23.91 0 0 1-1.1-8.89 2.37 2.37 0 0 1 .76-1.88c1-.69 2.32.5 2.9 1.61 3.94 7.67 1.19 17 2.8 25.49a9.32 9.32 0 0 1 3.08-6.13 44 44 0 0 1-.5 13.11c1.23.54 1.13 2.3.82 3.62a60.66 60.66 0 0 1-1.5 6c-2.2-.18-2.24-1.38-2.93-3.15a15.84 15.84 0 0 0-3.86-5.58Z"></path><path fill="#68e1fd" d="M141.78 219.53c2.07-2.35 4.55-4.58 7.62-5.22.93 1.79 0 4-1.29 5.57s-2.89 3-3.54 4.86a19.71 19.71 0 0 1 10.35-6.47 5.85 5.85 0 0 1 4.38.25 1.67 1.67 0 0 1 .82 1c.24 1.1-1.16 1.76-2.26 2a34.51 34.51 0 0 0-19.17 13.15 24.15 24.15 0 0 1 15.21-3.33c.92.11 2 .39 2.34 1.24.53 1.26-.9 2.46-2.2 2.89-5 1.66-11.26-.11-15.3 3.31a8.65 8.65 0 0 1 6.14 1.7c1.41 1.07 2.45 3.26 1.21 4.52a3.6 3.6 0 0 1-3 .68c-2.89-.25-6.45-.73-8.11 1.65-.91 1.31-.84 3-1.18 4.6-.27 1.27-1.32 3.52-2.7 2.28-.92-.83-.56-3.73-.56-4.83a46 46 0 0 1 11.22-29.82Z"></path><path fill="url(#s)" d="M124.15 301c-2.46-2.36-5.4-4.16-8-6.32-.92-.76-1.89-1.78-1.71-3a2.5 2.5 0 0 1 2-1.87 7.35 7.35 0 0 1 2.91.18l-5.6-6.3c-.52-.59-1.08-1.4-.7-2.09s1.45-.65 2.19-.3a4.63 4.63 0 0 0 2.26.81c-2-2.81-4.54-5.1-6.67-7.77s-3.84-6-3.52-9.36a2.14 2.14 0 0 1 .49-1.34c.64-.64 1.72-.37 2.55 0a26 26 0 0 1 13.33 13.16 23.91 23.91 0 0 1-1.1-8.89 2.37 2.37 0 0 1 .76-1.88c1-.69 2.32.5 2.9 1.61 3.94 7.67 1.19 17 2.8 25.49a9.32 9.32 0 0 1 3.08-6.13 44 44 0 0 1-.5 13.11c1.23.54 1.13 2.3.82 3.62a60.66 60.66 0 0 1-1.5 6c-2.2-.18-2.24-1.38-2.93-3.15a15.84 15.84 0 0 0-3.86-5.58Z" opacity=".61" transform="translate(0 -55.33)"></path><path fill="url(#t)" d="M141.78 274.86c2.07-2.35 4.55-4.58 7.62-5.22.93 1.79 0 4-1.29 5.57s-2.89 3-3.54 4.86a19.71 19.71 0 0 1 10.35-6.47 5.85 5.85 0 0 1 4.38.25 1.67 1.67 0 0 1 .82 1c.24 1.1-1.16 1.76-2.26 2A34.51 34.51 0 0 0 138.69 290a24.15 24.15 0 0 1 15.21-3.33c.92.11 2 .39 2.34 1.24.53 1.26-.9 2.46-2.2 2.89-5 1.66-11.26-.11-15.3 3.31a8.65 8.65 0 0 1 6.14 1.7c1.41 1.07 2.45 3.26 1.21 4.52a3.6 3.6 0 0 1-3 .68c-2.89-.25-6.45-.73-8.11 1.65-.91 1.31-.84 3-1.18 4.6-.27 1.27-1.32 3.52-2.7 2.28-.92-.83-.56-3.73-.56-4.83a46 46 0 0 1 11.22-29.82Z" opacity=".61" transform="translate(0 -55.33)"></path><path fill="#fff" d="m143.88 309.93-11.44.06-11.32.05c-24.9-14.81 3.83-44.83 3.83-44.83s1.14-4.68-.35-7.63a4.1 4.1 0 0 0-1.55-1.73c-3.67-2.2 1.45-3.07 1.45-3.07h15.36s5.26.44 1.31 3.21-1.75 9.22-1.75 9.22c30.78 34.17 4.46 44.72 4.46 44.72Z"></path><path fill="url(#u)" d="M133.27 364.42a7.83 7.83 0 0 1-.83.9l-11.32.05c-24.9-14.81 3.83-44.83 3.83-44.83s1.14-4.68-.35-7.63c5-.38 7.41 6.07 6.74 10.17-.51 3.16-1 6.33-1.55 9.49a28.76 28.76 0 0 0-.5 9c.62 4 2.9 7.53 4.39 11.29s2.08 8.36-.41 11.56Z" opacity=".51" transform="translate(0 -55.33)"></path><path fill="url(#v)" d="m219.7 376.55-111.88 31.78a145.25 145.25 0 0 0-90.22 74.76h-13A130.85 130.85 0 0 1 0 450.76V448c.17-25.9 8.16-51.52 24.81-71.41Z" opacity=".61" transform="translate(0 -55.33)"></path><path fill="url(#w)" d="M198.23 427.76h10.26v88.3h-10.26z" opacity=".61"></path><path fill="#3f3d56" d="M822.44 367.24a117 117 0 0 1-12 45.94 132.79 132.79 0 0 1-8.9 15.09c-11.08 16.28-25.57 30-42 41.24a206.36 206.36 0 0 1-37.92 20.22l-26.51-4.89-50.81-9.37c-2.49-.46-4.9-.75-7.18-1-9.37-1.06-16.66-1.58-19.41-11.09-3.41-11.71 0-29.63 0-41.91 0-21.34 2.23-46.75 20.81-57.23 15.42-8.68 35-2.55 52.21-6.57a9.78 9.78 0 0 0 4.54-2c2-1.85 2.31-4.85 2.36-7.57.43-20.65-6.47-43.81 5.87-60.37 9.44-12.66 26.71-16.15 42.43-17.61a139.28 139.28 0 0 1 14.56-.63q3.54 0 7.07.3c16.29 1.26 31.81 6.49 40.09 19.9 4.43 7.16 6 15.66 7.48 23.95.67 3.83 1.34 7.69 2 11.55 2.2 13.86 4.2 27.97 5.31 42.05Z"></path><path fill="#25233a" d="M822.44 367.24a117 117 0 0 1-12 45.94 132.79 132.79 0 0 1-8.9 15.09c-6.09 2.59-13.42 2.56-20.21 2.66a226.92 226.92 0 0 0-31.91 2.74c-4.74.74-9.68 1.73-13.4 4.77-4.91 4-6.61 10.83-6.88 17.18s.58 12.78-.5 19.05a12.2 12.2 0 0 1-2.33 5.83c-2.55 3.07-7 3.62-11 3.87q-10.14.62-20.29.5a278.22 278.22 0 0 1-50.67-5.32c-2.89-.58-6.26-1.61-7.18-4.42a3.48 3.48 0 0 1-.14-.64 9.6 9.6 0 0 1 .36-3.93l9.15-39.17c1.24-5.32 2.52-10.74 5.35-15.41 5.64-9.35 16.36-14.13 26.41-18.36l27.06-11.41c7.4-3.1 12.43-3.5 11.77-12.21-1.45-19.26-5.49-38-5.49-57.44 0-5.58.26-11.35 2.66-16.37s6.71-8.84 11.14-12.2a129.43 129.43 0 0 1 34.95-18.51q3.54 0 7.07.3c16.29 1.26 31.81 6.49 40.09 19.9 4.43 7.16 6 15.66 7.48 23.95.67 3.83 1.34 7.69 2 11.55 1.45 8.77 2.78 17.63 3.85 26.51.62 5.16 1.12 10.36 1.56 15.55Z"></path><path fill="#3f3d56" d="M822.44 367.24a117 117 0 0 1-12 45.94 132.79 132.79 0 0 1-8.9 15.09c-6.09 2.59-13.42 2.56-20.21 2.66a226.92 226.92 0 0 0-31.91 2.74c-4.74.74-9.68 1.73-13.4 4.77 0 0 6.21-34.32 31.54-45.88s53.32-40.89 53.32-40.89c.62 5.18 1.12 10.38 1.56 15.57Z"></path><path fill="url(#x)" d="M266.53 351.65a7.18 7.18 0 0 1-.4-.38l.09.08a1.59 1.59 0 0 1 .31.3Z" transform="translate(0 -55.33)"></path><path fill="#fff" d="M255.45 280.41s1.45 16.09 5.17 20.18a48.15 48.15 0 0 1-10.91-16.53s16-109.88 32.66-129l4.48 2.38ZM472.47 193.67l.23 11-14.36 36.15-43.88 23-2.46-3.15 43.61-23.68s13.61-28.04 16.86-43.32ZM387.82 280.32l-.74 3.94-49.92-3.72c-13.82-1.19-27.38-10.64-29.1-24.45l-17.23-61a15.54 15.54 0 0 1 3-14.69s16.09 75.5 22 82.26S333 273.47 333 273.47Z" opacity=".24"></path><path fill="#fff" d="m276.62 398.67-26.85 84.8-4-1.72 22.91-90.2S259.76 367 253.2 349.1c-6.3-17.17 2.27-51.19 3-53.93l3.43 3.55s-9 40.26 2.58 59.4 14.41 40.55 14.41 40.55ZM487.25 300.96a40 40 0 0 1-5.89-2 10.2 10.2 0 0 1-5.33-13.5c2.83-6.4 2.91-15.66 2.65-24.2-.59-19.64-5.56-40.87-5.93-49.75-.24-5.65.67-13.66 2.33-21.66l3.14-13.29s-2.88 21.56-3.62 27.47 6.05 39.56 8.51 44.44-1.89 33.6-1.3 40.42 5.44 12.07 5.44 12.07ZM542.94 479.54l-4.09 2c-.47-2.35-9.22-45.6-21.55-76.94-9.21-23.37-13.65-71-15.38-95.32l5.07 1s7.52 62.1 15.78 85.06 20.17 84.2 20.17 84.2ZM540.46 257.67l-13.26 42.71-3-.57-.59-.2 12.45-40s-16.3-44.94-19.06-58.78a38.64 38.64 0 0 1-.13-13.88 12 12 0 0 1 9.41-9.77s-9 6.27-6.26 20.13c3.58 17.81 20.44 60.36 20.44 60.36ZM510.15 166.16l-20.73 65.76-3.98 4.03 21.02-71.23.08-7.13 2.67 2.73v.01l.94 5.83z" opacity=".24"></path></svg>